<svg xmlns="http://www.w3.org/2000/svg" version="1.1" x="0px" y="0px" viewBox="0 0 370.808 370.808" width="24px" height="24px">
    <path d="M322,259.004c-0.064,0.111-0.127,0.231-0.191,0.343C321.995,259.239,322,259.004,322,259.004z" fill="#ffffff"></path>
    <path d="M317.56,267.155c-0.032,0.057-0.064,0.117-0.096,0.174C317.506,267.281,317.536,267.221,317.56,267.155z" fill="#ffffff"></path>
    <path d="M360,329.804c-12.8,0-24-5.2-32.4-13.2c-8.4-8.4-13.2-19.6-13.2-32.4c0-4.8,0.8-9.6,2-14c0.338-1.015,0.676-2.014,1.015-2.787c0.016-0.029,0.033-0.06,0.049-0.089c-0.007,0.008-0.013,0.016-0.02,0.024c0.052-0.117,0.104-0.244,0.156-0.348c0,0.063-0.023,0.104-0.04,0.151c1.416-2.528,2.833-5.302,4.249-7.807c-0.054,0.032-0.119,0.057-0.209,0.057c0.4-0.4,0.8-1.2,1.2-1.6h-0.4c0,0,0,0.4-0.4,0.4c10.4-22,16.4-46.8,16.4-72.8c0-93.2-75.6-169.2-169.2-169.2C76,16.204,0,91.804,0,185.404c0,93.2,75.6,169.2,169.2,169.2c48.626,0,92.483-20.656,123.267-53.254c-0.261,0.285-0.467,0.569-0.467,0.854c3.2,12.4,9.6,23.2,18.4,32c12.8,12.8,30.4,20.4,49.6,20.4C373.6,354.204,375.2,331.004,360,329.804z M252,103.804c14-8,31.6-3.2,39.6,10.4c8,14,3.2,31.6-10.4,39.6c-13.6,8-31.6,3.6-39.6-10.4C233.6,129.804,238,111.804,252,103.804z M169.6,44.204c16,0,28.8,12.8,28.8,28.8s-12.8,28.8-28.8,28.8s-28.8-12.8-28.8-28.8C140.4,57.004,153.6,44.204,169.6,44.204z M87.2,266.204c-14,8-31.6,3.2-39.6-10.4c-8-14-3.2-31.6,10.4-39.6c14-8,31.6-3.2,39.6,10.4C105.6,240.204,100.8,258.204,87.2,266.204z M97.6,143.404c-8,14-25.6,18.4-39.6,10.4s-18.4-25.6-10.4-39.6s25.6-18.4,39.6-10.4C100.8,111.804,105.6,129.804,97.6,143.404z M169.6,325.804c-16,0-28.8-12.8-28.8-28.8s12.8-28.8,28.8-28.8s28.8,12.8,28.8,28.8S185.6,325.804,169.6,325.804z M169.6,243.004c-32,0-58-26-58-58s26-58,58-58s58,26,58,58S201.6,243.004,169.6,243.004z M291.6,255.804c-8,13.6-25.6,18.4-39.6,10.4s-18.4-25.6-10.4-39.6s25.6-18.4,39.6-10.4S299.6,241.804,291.6,255.804z M311.6,277.004c0-0.4,0.4-1.2,1.2-2C312.4,275.804,312,276.204,311.6,277.004z" fill="#ffffff"></path>
</svg>

<svg xmlns="http://www.w3.org/2000/svg" version="1.1" x="0px" y="0px" viewBox="0 0 477.992 477.992" width="24px" height="24px">
<path d="M92.388,154.804H48.694c-2.761,0-5,2.239-5,5v273.085c0,2.761,2.239,5,5,5h43.694c2.761,0,5-2.239,5-5V159.804C97.388,157.043,95.149,154.804,92.388,154.804z M87.388,427.889H53.694V164.804h33.694V427.889z M75.541,66.484v44.625h16.847c2.761,0,5,2.239,5,5s-2.239,5-5,5H48.694c-2.761,0-5-2.239-5-5s2.239-5,5-5h16.847V66.484H48.694c-2.761,0-5-2.239-5-5c0-2.761,2.239-5,5-5h43.694c2.761,0,5,2.239,5,5c0,2.761-2.239,5-5,5H75.541z M65.541,411.042v-10.825c0-2.761,2.239-5,5-5s5,2.239,5,5v10.825c0,2.761-2.239,5-5,5S65.541,413.803,65.541,411.042z M65.541,370.198v-188.56c0-2.761,2.239-5,5-5s5,2.239,5,5v188.56c0,2.761-2.239,5-5,5S65.541,372.959,65.541,370.198z M223.469,154.804h-43.694c-2.761,0-5,2.239-5,5v273.085c0,2.761,2.239,5,5,5h43.694c2.761,0,5-2.239,5-5V159.804C228.469,157.043,226.23,154.804,223.469,154.804z M218.469,427.889h-33.694V164.804h33.694V427.889z M223.469,66.484c2.761,0,5-2.239,5-5c0-2.761-2.239-5-5-5h-43.694c-2.761,0-5,2.239-5,5c0,2.761,2.239,5,5,5h5.923v44.625h-5.923c-2.761,0-5,2.239-5,5s2.239,5,5,5h43.694c2.761,0,5-2.239,5-5s-2.239-5-5-5h-5.923V66.484H223.469z M207.546,111.109h-11.847V66.484h11.847V111.109z M196.623,411.042v-10.825c0-2.761,2.239-5,5-5s5,2.239,5,5v10.825c0,2.761-2.239,5-5,5S196.623,413.803,196.623,411.042z M196.623,370.198v-188.56c0-2.761,2.239-5,5-5s5,2.239,5,5v188.56c0,2.761-2.239,5-5,5S196.623,372.959,196.623,370.198z M477.912,441.369L399.891,11.431c-0.236-1.305-0.982-2.462-2.072-3.217c-1.09-0.755-2.436-1.045-3.74-0.81L272.163,29.528v-0.821c0-2.761-2.239-5-5-5H136.082H5c-2.761,0-5,2.239-5,5v436.96c0,2.761,2.239,5,5,5h131.082h131.082c2.761,0,5-2.239,5-5V97.711l66.935,368.848c0.438,2.416,2.543,4.108,4.914,4.108c0.296,0,0.597-0.026,0.898-0.082l128.975-23.405c1.305-0.237,2.462-0.982,3.217-2.072C477.857,444.019,478.148,442.674,477.912,441.369z M10,33.707h121.082v426.96H10V33.707z M262.163,460.667H141.082V33.707h120.343c-0.392,0.884-0.533,1.891-0.347,2.915l1.086,5.984V460.667z M348.044,459.854L272.163,41.706v-2.015l118.782-21.555l76.235,420.099L348.044,459.854z M374.495,144.197l-42.992,7.801c-1.305,0.236-2.462,0.982-3.217,2.072c-0.755,1.09-1.046,2.436-0.81,3.74l48.76,268.697c0.236,1.305,0.982,2.462,2.072,3.217c0.842,0.583,1.837,0.89,2.848,0.89c0.297,0,0.596-0.026,0.893-0.081l42.992-7.802c2.717-0.493,4.52-3.095,4.027-5.812l-48.76-268.697C379.814,145.506,377.204,143.7,374.495,144.197z M385.183,419.802l-46.975-258.858l33.152-6.016l46.975,258.857L385.183,419.802z M368.479,111.043C368.479,111.043,368.479,111.043,368.479,111.043l10.748-1.95c2.717-0.493,4.52-3.095,4.027-5.813s-3.097-4.519-5.812-4.027l-5.828,1.058l-7.968-43.908l5.828-1.058c2.717-0.493,4.52-3.095,4.027-5.813c-0.493-2.717-3.097-4.52-5.812-4.027L303.2,57.209c-2.717,0.493-4.52,3.095-4.027,5.813c0.438,2.415,2.543,4.108,4.914,4.108c0.296,0,0.597-0.027,0.898-0.081l5.828-1.058l7.968,43.907l-5.828,1.058c-2.717,0.493-4.52,3.095-4.027,5.813c0.438,2.415,2.543,4.108,4.914,4.108c0.296,0,0.597-0.027,0.898-0.081l53.739-9.752C368.478,111.043,368.478,111.043,368.479,111.043z M361.774,102.096l-11.657,2.115l-7.968-43.908l11.657-2.115L361.774,102.096zM320.653,64.205l11.657-2.115l7.968,43.907l-11.657,2.115L320.653,64.205z M362.71,173.608l40.96,225.717c0.493,2.717-1.31,5.319-4.027,5.812c-0.302,0.055-0.602,0.082-0.898,0.082c-2.371,0-4.476-1.693-4.914-4.108l-40.96-225.717c-0.493-2.717,1.31-5.319,4.027-5.812C359.611,169.083,362.217,170.89,362.71,173.608z" fill="#ffffff"></path>
</svg>

<svg xmlns="http://www.w3.org/2000/svg" version="1.1" x="0px" y="0px" viewBox="0 0 321.145 321.145" width="24px" height="24px">
<path d="M320.973,200.981c-0.8-18.4-4-38.8-8.8-58c-4.8-18.4-10.8-35.6-18-48.8c-28-49.2-58.4-41.6-94.8-32c-11.6,2.8-24,6-36.8,7.2h-4c-12.8-1.2-25.2-4.4-36.8-7.2c-36.4-9.2-66.8-17.2-94.8,32.4c-7.2,13.2-13.6,30.4-18,48.8c-4.8,19.2-8,39.6-8.8,58c-0.8,20.4,1.2,35.2,5.6,45.6c4.4,9.6,10.8,15.6,19.2,18c7.6,2,16.4,1.2,25.6-2.8c15.6-6.4,33.6-20,51.2-36.4c12.4-12,35.6-18,58.8-18s46.4,6,58.8,18c17.6,16.4,35.6,30,51.2,36.4c9.2,3.6,18,4.8,25.6,2.8c8-2.4,14.8-8,19.2-18.4C319.773,236.581,321.773,221.781,320.973,200.981z M301.773,240.981c-2.4,5.6-5.6,8.8-9.6,10c-4.4,1.2-10,0.4-16.4-2c-14-5.6-30.4-18-46.4-33.2c-15.2-15.2-42-22.8-68.8-22.8s-53.6,7.6-69.2,22c-16.4,15.2-32.8,28-46.4,33.2c-6.4,2.4-12,3.6-16.4,2c-4-1.2-7.2-4.4-9.6-10c-3.2-7.6-4.8-20-4-38.4c0.8-17.2,3.6-36.8,8.4-55.2c4.4-17.2,10-33.2,16.8-45.2c22-39.6,47.6-33.2,78-25.2c12.4,3.2,25.2,6.4,39.2,7.6c0.4,0,0.4,0,0.8,0h4.4c0.4,0,0.4,0,0.8,0c14.4-1.2,27.2-4.4,39.6-7.6c30.4-7.6,56-14.4,78,25.2c6.8,12,12.4,27.6,16.8,45.2c4.4,18.4,7.6,37.6,8.4,55.2C306.973,220.181,305.373,232.581,301.773,240.981z" fill="#ffffff"></path>
<path d="M123.773,122.981c-4-3.6-8.8-6.4-14.4-6.8c-0.4-5.2-2.8-10.4-6.4-14l-0.4-0.4c-4.4-4.4-10-6.8-16.4-6.8c-6.4,0-12.4,2.8-16.4,6.8c-3.6,3.6-6.4,8.8-6.8,14.4c-5.6,0.4-10.4,2.8-14.4,6.4l-0.4,0.4c-4.4,4.4-6.8,10-6.8,16.4c0,6.4,2.8,12.4,6.8,16.4c4,4,8.8,6.4,14.8,6.8c0.4,5.6,2.8,10.8,6.8,14.4c4.4,4.4,10,6.8,16.4,6.8c6.4,0,12.4-2.8,16.4-6.8c3.6-4,6.4-8.8,6.8-14.4c5.6-0.4,10.8-2.8,14.4-6.8c4.4-4.4,6.8-10,6.8-16.4C130.573,132.981,127.773,126.981,123.773,122.981z M113.773,145.381c-1.6,1.6-3.6,2.4-6,2.4h-5.6c-4,0-7.6,3.2-7.6,7.6v5.2c0,2.4-0.8,4.4-2.4,6c-1.6,1.6-3.6,2.4-6,2.4c-2.4,0-4.4-0.8-6-2.4c-1.6-1.6-2.4-3.6-2.4-6v-5.6c0-4-3.2-7.6-7.6-7.6h-5.6c-2.4,0-4.4-0.8-6-2.4c-1.2-1.2-2.4-3.2-2.4-5.6c0-2.4,0.8-4.4,2.4-6c0,0,0,0,0.4-0.4c1.6-1.2,3.6-2,5.6-2h5.6c4,0,7.6-3.2,7.6-7.6v-5.6c0-2.4,0.8-4.4,2.4-6c1.6-1.6,3.6-2.4,6-2.4c2.4,0,4.4,0.8,6,2.4c0,0,0,0,0.4,0.4c1.2,1.6,2,3.6,2,5.6v5.6c0,4,3.2,7.6,7.6,7.6h5.6c2.4,0,4.4,0.8,6,2.4c1.6,1.6,2.4,3.6,2.4,6C116.173,141.781,115.373,143.781,113.773,145.381z" fill="#ffffff"></path>
<circle cx="230.173" cy="110.981" r="14" fill="#ffffff"></circle>
<circle cx="230.173" cy="167.781" r="14" fill="#ffffff"></circle>
<circle cx="201.773" cy="139.381" r="14" fill="#ffffff"></circle>
<circle cx="258.573" cy="139.381" r="14" fill="#ffffff"></circle>
</svg>